<svg xmlns="http://www.w3.org/2000/svg" xmlns:xlink="http://www.w3.org/1999/xlink" version="1.1" width="256" height="256" viewBox="0 0 256 256" xml:space="preserve">
<desc>Created with Fabric.js 1.7.22</desc>
<defs>
</defs>
<g transform="translate(128 128) scale(0.72 0.72)" style="">
	<g style="stroke: none; stroke-width: 0; stroke-dasharray: none; stroke-linecap: butt; stroke-linejoin: miter; stroke-miterlimit: 10; fill: none; fill-rule: nonzero; opacity: 1;" transform="translate(-175.05 -175.05000000000004) scale(3.89 3.89)" >
	<path d="M 9.794 20.994 c 0 4.857 -3.937 8.794 -8.794 8.794 l 0 -8.794 H 9.794 z" style="stroke: none; stroke-width: 1; stroke-dasharray: none; stroke-linecap: butt; stroke-linejoin: miter; stroke-miterlimit: 10; fill: rgb(240,188,94); fill-rule: nonzero; opacity: 1;" transform=" matrix(1 0 0 1 0 0) " stroke-linecap="round" />
	<path d="M 80.206 20.994 c 0 4.857 3.937 8.794 8.794 8.794 v -8.794 H 80.206 z" style="stroke: none; stroke-width: 1; stroke-dasharray: none; stroke-linecap: butt; stroke-linejoin: miter; stroke-miterlimit: 10; fill: rgb(240,188,94); fill-rule: nonzero; opacity: 1;" transform=" matrix(1 0 0 1 0 0) " stroke-linecap="round" />
	<path d="M 9.794 69.006 c 0 -4.857 -3.937 -8.794 -8.794 -8.794 l 0 8.794 H 9.794 z" style="stroke: none; stroke-width: 1; stroke-dasharray: none; stroke-linecap: butt; stroke-linejoin: miter; stroke-miterlimit: 10; fill: rgb(240,188,94); fill-rule: nonzero; opacity: 1;" transform=" matrix(1 0 0 1 0 0) " stroke-linecap="round" />
	<path d="M 89 60.212 c -4.857 0 -8.794 3.937 -8.794 8.794 H 89 V 60.212 z" style="stroke: none; stroke-width: 1; stroke-dasharray: none; stroke-linecap: butt; stroke-linejoin: miter; stroke-miterlimit: 10; fill: rgb(240,188,94); fill-rule: nonzero; opacity: 1;" transform=" matrix(1 0 0 1 0 0) " stroke-linecap="round" />
	<circle cx="14.638" cy="33.408" r="3.618" style="stroke: none; stroke-width: 1; stroke-dasharray: none; stroke-linecap: butt; stroke-linejoin: miter; stroke-miterlimit: 10; fill: rgb(240,188,94); fill-rule: nonzero; opacity: 1;" transform="  matrix(1 0 0 1 0 0) "/>
	<circle cx="75.35799999999999" cy="33.408" r="3.618" style="stroke: none; stroke-width: 1; stroke-dasharray: none; stroke-linecap: butt; stroke-linejoin: miter; stroke-miterlimit: 10; fill: rgb(240,188,94); fill-rule: nonzero; opacity: 1;" transform="  matrix(1 0 0 1 0 0) "/>
	<circle cx="14.638" cy="56.688" r="3.618" style="stroke: none; stroke-width: 1; stroke-dasharray: none; stroke-linecap: butt; stroke-linejoin: miter; stroke-miterlimit: 10; fill: rgb(240,188,94); fill-rule: nonzero; opacity: 1;" transform="  matrix(1 0 0 1 0 0) "/>
	<circle cx="75.35799999999999" cy="56.688" r="3.618" style="stroke: none; stroke-width: 1; stroke-dasharray: none; stroke-linecap: butt; stroke-linejoin: miter; stroke-miterlimit: 10; fill: rgb(240,188,94); fill-rule: nonzero; opacity: 1;" transform="  matrix(1 0 0 1 0 0) "/>
	<path d="M 45 27.5 c -9.665 0 -17.5 7.835 -17.5 17.5 S 35.335 62.5 45 62.5 S 62.5 54.665 62.5 45 S 54.665 27.5 45 27.5 z M 45 57.5 c -6.904 0 -12.5 -5.596 -12.5 -12.5 S 38.096 32.5 45 32.5 S 57.5 38.096 57.5 45 S 51.904 57.5 45 57.5 z" style="stroke: none; stroke-width: 1; stroke-dasharray: none; stroke-linecap: butt; stroke-linejoin: miter; stroke-miterlimit: 10; fill: rgb(240,188,94); fill-rule: nonzero; opacity: 1;" transform=" matrix(1 0 0 1 0 0) " stroke-linecap="round" />
	<path d="M 89 70.006 H 1 c -0.552 0 -1 -0.447 -1 -1 V 20.994 c 0 -0.552 0.448 -1 1 -1 h 88 c 0.553 0 1 0.448 1 1 v 48.012 C 90 69.559 89.553 70.006 89 70.006 z M 2 68.006 h 86 V 21.994 H 2 V 68.006 z" style="stroke: none; stroke-width: 1; stroke-dasharray: none; stroke-linecap: butt; stroke-linejoin: miter; stroke-miterlimit: 10; fill: rgb(0,0,0); fill-rule: nonzero; opacity: 1;" transform=" matrix(1 0 0 1 0 0) " stroke-linecap="round" />
	<path d="M 1 30.788 c -0.552 0 -1 -0.448 -1 -1 v -8.793 c 0 -0.552 0.448 -1 1 -1 h 8.794 c 0.552 0 1 0.448 1 1 C 10.794 26.394 6.4 30.788 1 30.788 z M 2 21.994 v 6.729 c 3.5 -0.45 6.28 -3.23 6.73 -6.729 H 2 z" style="stroke: none; stroke-width: 1; stroke-dasharray: none; stroke-linecap: butt; stroke-linejoin: miter; stroke-miterlimit: 10; fill: rgb(0,0,0); fill-rule: nonzero; opacity: 1;" transform=" matrix(1 0 0 1 0 0) " stroke-linecap="round" />
	<path d="M 89 30.788 c -5.4 0 -9.794 -4.394 -9.794 -9.793 c 0 -0.552 0.447 -1 1 -1 H 89 c 0.553 0 1 0.448 1 1 v 8.793 C 90 30.34 89.553 30.788 89 30.788 z M 81.27 21.994 c 0.451 3.5 3.23 6.28 6.73 6.729 v -6.729 H 81.27 z" style="stroke: none; stroke-width: 1; stroke-dasharray: none; stroke-linecap: butt; stroke-linejoin: miter; stroke-miterlimit: 10; fill: rgb(0,0,0); fill-rule: nonzero; opacity: 1;" transform=" matrix(1 0 0 1 0 0) " stroke-linecap="round" />
	<path d="M 9.794 70.006 H 1 c -0.552 0 -1 -0.447 -1 -1 v -8.794 c 0 -0.553 0.448 -1 1 -1 c 5.4 0 9.794 4.394 9.794 9.794 C 10.794 69.559 10.346 70.006 9.794 70.006 z M 2 68.006 h 6.73 c -0.45 -3.5 -3.23 -6.28 -6.73 -6.73 V 68.006 z" style="stroke: none; stroke-width: 1; stroke-dasharray: none; stroke-linecap: butt; stroke-linejoin: miter; stroke-miterlimit: 10; fill: rgb(0,0,0); fill-rule: nonzero; opacity: 1;" transform=" matrix(1 0 0 1 0 0) " stroke-linecap="round" />
	<path d="M 89 70.006 h -8.794 c -0.553 0 -1 -0.447 -1 -1 c 0 -5.4 4.394 -9.794 9.794 -9.794 c 0.553 0 1 0.447 1 1 v 8.794 C 90 69.559 89.553 70.006 89 70.006 z M 81.27 68.006 H 88 v -6.73 C 84.5 61.726 81.72 64.506 81.27 68.006 z" style="stroke: none; stroke-width: 1; stroke-dasharray: none; stroke-linecap: butt; stroke-linejoin: miter; stroke-miterlimit: 10; fill: rgb(0,0,0); fill-rule: nonzero; opacity: 1;" transform=" matrix(1 0 0 1 0 0) " stroke-linecap="round" />
	<path d="M 28.842 39.22 c -0.249 0 -0.498 -0.092 -0.691 -0.277 l -4.743 -4.537 h -5.151 c -0.552 0 -1 -0.448 -1 -1 s 0.448 -1 1 -1 h 5.552 c 0.257 0 0.505 0.099 0.691 0.277 l 5.033 4.814 c 0.399 0.382 0.413 1.015 0.031 1.414 C 29.368 39.116 29.105 39.22 28.842 39.22 z" style="stroke: none; stroke-width: 1; stroke-dasharray: none; stroke-linecap: butt; stroke-linejoin: miter; stroke-miterlimit: 10; fill: rgb(0,0,0); fill-rule: nonzero; opacity: 1;" transform=" matrix(1 0 0 1 0 0) " stroke-linecap="round" />
	<path d="M 61.198 39.182 c -0.264 0 -0.526 -0.104 -0.723 -0.309 c -0.382 -0.399 -0.367 -1.032 0.031 -1.414 l 4.993 -4.776 c 0.187 -0.178 0.434 -0.277 0.691 -0.277 h 5.553 c 0.553 0 1 0.448 1 1 s -0.447 1 -1 1 h -5.151 l -4.703 4.499 C 61.695 39.089 61.447 39.182 61.198 39.182 z" style="stroke: none; stroke-width: 1; stroke-dasharray: none; stroke-linecap: butt; stroke-linejoin: miter; stroke-miterlimit: 10; fill: rgb(0,0,0); fill-rule: nonzero; opacity: 1;" transform=" matrix(1 0 0 1 0 0) " stroke-linecap="round" />
	<path d="M 23.809 57.69 h -5.552 c -0.552 0 -1 -0.447 -1 -1 s 0.448 -1 1 -1 h 5.151 l 4.787 -4.578 c 0.398 -0.382 1.032 -0.367 1.414 0.031 c 0.382 0.399 0.368 1.032 -0.031 1.414 L 24.5 57.413 C 24.313 57.591 24.066 57.69 23.809 57.69 z" style="stroke: none; stroke-width: 1; stroke-dasharray: none; stroke-linecap: butt; stroke-linejoin: miter; stroke-miterlimit: 10; fill: rgb(0,0,0); fill-rule: nonzero; opacity: 1;" transform=" matrix(1 0 0 1 0 0) " stroke-linecap="round" />
	<path d="M 71.744 57.69 h -5.553 c -0.258 0 -0.505 -0.1 -0.691 -0.277 l -5.077 -4.856 c -0.398 -0.382 -0.413 -1.015 -0.031 -1.414 c 0.381 -0.399 1.014 -0.414 1.414 -0.031 l 4.787 4.579 h 5.151 c 0.553 0 1 0.447 1 1 S 72.297 57.69 71.744 57.69 z" style="stroke: none; stroke-width: 1; stroke-dasharray: none; stroke-linecap: butt; stroke-linejoin: miter; stroke-miterlimit: 10; fill: rgb(0,0,0); fill-rule: nonzero; opacity: 1;" transform=" matrix(1 0 0 1 0 0) " stroke-linecap="round" />
	<path d="M 44.909 51.06 c -3.341 0 -6.06 -2.719 -6.06 -6.06 c 0 -3.341 2.718 -6.06 6.06 -6.06 c 1.507 0 2.952 0.557 4.068 1.568 c 0.409 0.371 0.44 1.003 0.069 1.412 c -0.372 0.409 -1.005 0.439 -1.413 0.069 c -0.747 -0.677 -1.714 -1.05 -2.724 -1.05 c -2.238 0 -4.06 1.821 -4.06 4.06 s 1.821 4.06 4.06 4.06 c 1.009 0 1.977 -0.373 2.724 -1.051 c 0.408 -0.368 1.042 -0.34 1.413 0.069 s 0.34 1.042 -0.069 1.413 C 47.86 50.503 46.416 51.06 44.909 51.06 z" style="stroke: none; stroke-width: 1; stroke-dasharray: none; stroke-linecap: butt; stroke-linejoin: miter; stroke-miterlimit: 10; fill: rgb(0,0,0); fill-rule: nonzero; opacity: 1;" transform=" matrix(1 0 0 1 0 0) " stroke-linecap="round" />
	<path d="M 44.909 40.94 c -0.552 0 -1 -0.448 -1 -1 V 38 c 0 -0.552 0.448 -1 1 -1 s 1 0.448 1 1 v 1.94 C 45.909 40.493 45.461 40.94 44.909 40.94 z" style="stroke: none; stroke-width: 1; stroke-dasharray: none; stroke-linecap: butt; stroke-linejoin: miter; stroke-miterlimit: 10; fill: rgb(0,0,0); fill-rule: nonzero; opacity: 1;" transform=" matrix(1 0 0 1 0 0) " stroke-linecap="round" />
	<path d="M 44.909 53 c -0.552 0 -1 -0.447 -1 -1 v -1.94 c 0 -0.553 0.448 -1 1 -1 s 1 0.447 1 1 V 52 C 45.909 52.553 45.461 53 44.909 53 z" style="stroke: none; stroke-width: 1; stroke-dasharray: none; stroke-linecap: butt; stroke-linejoin: miter; stroke-miterlimit: 10; fill: rgb(0,0,0); fill-rule: nonzero; opacity: 1;" transform=" matrix(1 0 0 1 0 0) " stroke-linecap="round" />
	<path d="M 45 63.5 c -10.201 0 -18.5 -8.299 -18.5 -18.5 S 34.799 26.5 45 26.5 S 63.5 34.799 63.5 45 S 55.201 63.5 45 63.5 z M 45 28.5 c -9.098 0 -16.5 7.402 -16.5 16.5 c 0 9.098 7.402 16.5 16.5 16.5 c 9.098 0 16.5 -7.402 16.5 -16.5 C 61.5 35.902 54.098 28.5 45 28.5 z" style="stroke: none; stroke-width: 1; stroke-dasharray: none; stroke-linecap: butt; stroke-linejoin: miter; stroke-miterlimit: 10; fill: rgb(0,0,0); fill-rule: nonzero; opacity: 1;" transform=" matrix(1 0 0 1 0 0) " stroke-linecap="round" />
	<path d="M 14.638 38.023 c -2.546 0 -4.618 -2.071 -4.618 -4.618 s 2.071 -4.618 4.618 -4.618 s 4.618 2.072 4.618 4.618 S 17.185 38.023 14.638 38.023 z M 14.638 30.788 c -1.443 0 -2.618 1.174 -2.618 2.618 c 0 1.443 1.174 2.618 2.618 2.618 c 1.444 0 2.618 -1.174 2.618 -2.618 C 17.256 31.962 16.082 30.788 14.638 30.788 z" style="stroke: none; stroke-width: 1; stroke-dasharray: none; stroke-linecap: butt; stroke-linejoin: miter; stroke-miterlimit: 10; fill: rgb(0,0,0); fill-rule: nonzero; opacity: 1;" transform=" matrix(1 0 0 1 0 0) " stroke-linecap="round" />
	<path d="M 75.361 38.023 c -2.546 0 -4.617 -2.071 -4.617 -4.618 s 2.071 -4.618 4.617 -4.618 c 2.547 0 4.618 2.072 4.618 4.618 S 77.908 38.023 75.361 38.023 z M 75.361 30.788 c -1.443 0 -2.617 1.174 -2.617 2.618 c 0 1.443 1.174 2.618 2.617 2.618 s 2.618 -1.174 2.618 -2.618 C 77.979 31.962 76.805 30.788 75.361 30.788 z" style="stroke: none; stroke-width: 1; stroke-dasharray: none; stroke-linecap: butt; stroke-linejoin: miter; stroke-miterlimit: 10; fill: rgb(0,0,0); fill-rule: nonzero; opacity: 1;" transform=" matrix(1 0 0 1 0 0) " stroke-linecap="round" />
	<path d="M 14.638 61.309 c -2.546 0 -4.618 -2.071 -4.618 -4.618 s 2.071 -4.618 4.618 -4.618 s 4.618 2.071 4.618 4.618 S 17.185 61.309 14.638 61.309 z M 14.638 54.072 c -1.443 0 -2.618 1.175 -2.618 2.618 s 1.174 2.618 2.618 2.618 c 1.444 0 2.618 -1.175 2.618 -2.618 S 16.082 54.072 14.638 54.072 z" style="stroke: none; stroke-width: 1; stroke-dasharray: none; stroke-linecap: butt; stroke-linejoin: miter; stroke-miterlimit: 10; fill: rgb(0,0,0); fill-rule: nonzero; opacity: 1;" transform=" matrix(1 0 0 1 0 0) " stroke-linecap="round" />
	<path d="M 75.361 61.309 c -2.546 0 -4.617 -2.071 -4.617 -4.618 s 2.071 -4.618 4.617 -4.618 c 2.547 0 4.618 2.071 4.618 4.618 S 77.908 61.309 75.361 61.309 z M 75.361 54.072 c -1.443 0 -2.617 1.175 -2.617 2.618 s 1.174 2.618 2.617 2.618 s 2.618 -1.175 2.618 -2.618 S 76.805 54.072 75.361 54.072 z" style="stroke: none; stroke-width: 1; stroke-dasharray: none; stroke-linecap: butt; stroke-linejoin: miter; stroke-miterlimit: 10; fill: rgb(0,0,0); fill-rule: nonzero; opacity: 1;" transform=" matrix(1 0 0 1 0 0) " stroke-linecap="round" />
	<path d="M 45 58.5 c -7.444 0 -13.5 -6.056 -13.5 -13.5 c 0 -7.444 6.056 -13.5 13.5 -13.5 c 2.577 0 5.083 0.729 7.247 2.108 c 0.466 0.297 0.603 0.915 0.307 1.381 c -0.297 0.465 -0.916 0.604 -1.381 0.306 C 49.33 34.121 47.195 33.5 45 33.5 c -6.341 0 -11.5 5.159 -11.5 11.5 c 0 6.341 5.159 11.5 11.5 11.5 c 6.341 0 11.5 -5.159 11.5 -11.5 c 0 -2.68 -0.941 -5.289 -2.652 -7.346 c -0.353 -0.425 -0.294 -1.055 0.13 -1.408 c 0.427 -0.355 1.055 -0.294 1.409 0.13 C 57.395 38.792 58.5 41.854 58.5 45 C 58.5 52.444 52.444 58.5 45 58.5 z" style="stroke: none; stroke-width: 1; stroke-dasharray: none; stroke-linecap: butt; stroke-linejoin: miter; stroke-miterlimit: 10; fill: rgb(0,0,0); fill-rule: nonzero; opacity: 1;" transform=" matrix(1 0 0 1 0 0) " stroke-linecap="round" />
</g>
</g>
</svg>