<svg xmlns="http://www.w3.org/2000/svg" xmlns:xlink="http://www.w3.org/1999/xlink" version="1.1" width="256" height="256" viewBox="0 0 256 256" xml:space="preserve">
<desc>Created with Fabric.js 1.7.22</desc>
<defs>
</defs>
<g transform="translate(128 128) scale(0.72 0.72)" style="">
	<g style="stroke: none; stroke-width: 0; stroke-dasharray: none; stroke-linecap: butt; stroke-linejoin: miter; stroke-miterlimit: 10; fill: none; fill-rule: nonzero; opacity: 1;" transform="translate(-175.05 -175.05000000000004) scale(3.89 3.89)" >
	<path d="M 29.689 33.962 c -1.498 0.028 -2.919 0.456 -4 1.491 c -1.361 1.303 -1.839 3.248 -2.366 5.057 c -1.667 5.723 -4.422 11.127 -8.074 15.838 c -2.445 3.155 -5.364 6.138 -6.48 9.97 C 7.822 69.569 8.294 73.04 8.098 76.42 c -0.259 4.461 -5.07 8.847 -7.542 12.569 h 10.513 c 3.569 -3.437 6.391 -7.214 5.757 -12.569 c 0.098 -1.69 -0.138 -3.426 0.335 -5.051 c 0.558 -1.916 2.017 -3.408 3.24 -4.985 c 1.826 -2.356 3.203 -5.058 4.037 -7.919 c 1.477 -7.052 8.026 -10.128 6.556 -20.757 L 29.689 33.962 z" style="stroke: none; stroke-width: 1; stroke-dasharray: none; stroke-linecap: butt; stroke-linejoin: miter; stroke-miterlimit: 10; fill: rgb(240,188,94); fill-rule: nonzero; opacity: 1;" transform=" matrix(1 0 0 1 0 0) " stroke-linecap="round" />
	<path d="M 66.233 49.524 c -10.898 0 -19.733 8.835 -19.733 19.733 S 55.335 88.99 66.233 88.99 c 10.898 0 19.733 -8.835 19.733 -19.733 S 77.131 49.524 66.233 49.524 z M 66.233 82.941 c -7.558 0 -13.685 -6.127 -13.685 -13.685 s 6.127 -13.685 13.685 -13.685 c 7.558 0 13.685 6.127 13.685 13.685 S 73.791 82.941 66.233 82.941 z" style="stroke: none; stroke-width: 1; stroke-dasharray: none; stroke-linecap: butt; stroke-linejoin: miter; stroke-miterlimit: 10; fill: rgb(240,188,94); fill-rule: nonzero; opacity: 1;" transform=" matrix(1 0 0 1 0 0) " stroke-linecap="round" />
	<path d="M 32.687 42.337 c -0.283 0 -0.557 -0.118 -0.751 -0.335 c -3.615 -4.021 -4.474 -11.586 -2.288 -19.861 l -2.148 -1.61 c -0.366 -0.275 -0.503 -0.761 -0.331 -1.186 l 2.547 -6.32 c 0.172 -0.425 0.609 -0.681 1.061 -0.624 l 2.664 0.329 C 37.604 5.248 43.47 0.392 48.864 0.002 c 0.398 -0.023 0.748 0.164 0.942 0.493 c 0.195 0.33 0.187 0.742 -0.021 1.063 c -2.892 4.468 -5.551 9.371 -7.908 14.584 l 2.115 1.585 c 0.366 0.275 0.503 0.762 0.331 1.186 l -2.547 6.32 c -0.172 0.425 -0.606 0.681 -1.061 0.624 l -2.622 -0.325 c -1.916 5.388 -3.4 10.762 -4.414 15.986 c -0.073 0.376 -0.353 0.679 -0.722 0.781 C 32.867 42.325 32.777 42.337 32.687 42.337 z M 29.332 19.38 l 2.077 1.556 c 0.334 0.251 0.48 0.681 0.366 1.083 c -1.865 6.597 -1.672 12.874 0.399 16.795 c 1.056 -4.838 2.496 -9.781 4.291 -14.728 c 0.16 -0.443 0.611 -0.718 1.074 -0.657 l 2.653 0.328 l 1.967 -4.88 l -2.14 -1.603 c -0.377 -0.283 -0.509 -0.788 -0.318 -1.219 c 2.138 -4.811 4.529 -9.373 7.123 -13.592 c -4.213 1.389 -8.706 5.779 -11.936 11.829 c -0.197 0.369 -0.596 0.581 -1.016 0.526 L 31.298 14.5 L 29.332 19.38 z" style="stroke: none; stroke-width: 1; stroke-dasharray: none; stroke-linecap: butt; stroke-linejoin: miter; stroke-miterlimit: 10; fill: rgb(0,0,0); fill-rule: nonzero; opacity: 1;" transform=" matrix(1 0 0 1 0 0) " stroke-linecap="round" />
	<path d="M 86.034 43.812 c -0.548 0 -1.105 -0.103 -1.644 -0.321 L 40.463 25.787 c -0.248 -0.1 -0.447 -0.294 -0.552 -0.541 c -0.105 -0.247 -0.108 -0.525 -0.007 -0.773 l 2.545 -6.315 c 0.208 -0.517 0.798 -0.767 1.314 -0.559 L 87.69 35.303 c 2.257 0.909 3.354 3.486 2.444 5.744 v 0 C 89.441 42.766 87.781 43.812 86.034 43.812 z M 42.156 24.291 l 42.989 17.327 c 1.221 0.493 2.621 -0.101 3.115 -1.326 c 0.493 -1.225 -0.102 -2.622 -1.326 -3.115 L 43.946 19.85 L 42.156 24.291 z M 89.197 40.67 h 0.01 H 89.197 z" style="stroke: none; stroke-width: 1; stroke-dasharray: none; stroke-linecap: butt; stroke-linejoin: miter; stroke-miterlimit: 10; fill: rgb(0,0,0); fill-rule: nonzero; opacity: 1;" transform=" matrix(1 0 0 1 0 0) " stroke-linecap="round" />
	<path d="M 66.233 90 H 0.556 c -0.372 0 -0.714 -0.204 -0.89 -0.533 c -0.176 -0.327 -0.157 -0.726 0.049 -1.036 c 0.721 -1.086 1.607 -2.193 2.544 -3.364 c 2.186 -2.729 4.663 -5.823 4.831 -8.705 c 0.061 -1.051 0.055 -2.143 0.05 -3.201 c -0.013 -2.348 -0.026 -4.775 0.659 -7.126 c 0.953 -3.273 3.103 -5.915 5.181 -8.47 c 0.497 -0.611 0.993 -1.22 1.47 -1.836 c 3.55 -4.579 6.282 -9.939 7.903 -15.503 l 0.117 -0.407 c 0.499 -1.736 1.064 -3.703 2.52 -5.096 c 1.172 -1.123 2.79 -1.735 4.679 -1.772 c 0.54 -0.008 1.018 0.433 1.029 0.991 c 0.01 0.558 -0.433 1.018 -0.991 1.029 c -1.392 0.027 -2.509 0.434 -3.32 1.21 c -1.062 1.017 -1.526 2.633 -1.975 4.196 l -0.12 0.414 c -1.691 5.805 -4.542 11.399 -8.245 16.175 c -0.487 0.629 -0.993 1.251 -1.5 1.874 c -2.042 2.509 -3.97 4.88 -4.809 7.759 c -0.603 2.07 -0.591 4.247 -0.579 6.551 c 0.005 1.089 0.011 2.215 -0.053 3.328 c -0.205 3.526 -2.896 6.887 -5.271 9.852 c -0.452 0.564 -0.893 1.115 -1.303 1.648 h 63.7 c 0.558 0 1.01 0.452 1.01 1.01 C 67.243 89.548 66.791 90 66.233 90 z" style="stroke: none; stroke-width: 1; stroke-dasharray: none; stroke-linecap: butt; stroke-linejoin: miter; stroke-miterlimit: 10; fill: rgb(0,0,0); fill-rule: nonzero; opacity: 1;" transform=" matrix(1 0 0 1 0 0) " stroke-linecap="round" />
	<path d="M 52.548 56.057 c -0.124 0 -0.251 -0.023 -0.373 -0.071 c -4.16 -1.653 -6.997 -6.162 -9.741 -10.523 c -2.547 -4.048 -5.182 -8.235 -8.671 -9.658 c -0.517 -0.211 -0.764 -0.8 -0.554 -1.316 c 0.21 -0.517 0.798 -0.768 1.316 -0.554 c 4.091 1.668 6.901 6.134 9.618 10.453 c 2.571 4.086 5.23 8.312 8.777 9.721 c 0.519 0.206 0.771 0.794 0.566 1.312 C 53.33 55.817 52.95 56.057 52.548 56.057 z" style="stroke: none; stroke-width: 1; stroke-dasharray: none; stroke-linecap: butt; stroke-linejoin: miter; stroke-miterlimit: 10; fill: rgb(0,0,0); fill-rule: nonzero; opacity: 1;" transform=" matrix(1 0 0 1 0 0) " stroke-linecap="round" />
	<path d="M 66.233 83.951 c -8.102 0 -14.695 -6.592 -14.695 -14.695 s 6.592 -14.695 14.695 -14.695 c 2.804 0 5.532 0.793 7.888 2.294 c 0.471 0.3 0.609 0.924 0.31 1.395 c -0.301 0.472 -0.924 0.608 -1.395 0.31 c -2.032 -1.294 -4.385 -1.979 -6.803 -1.979 c -6.989 0 -12.675 5.686 -12.675 12.675 s 5.686 12.675 12.675 12.675 c 6.989 0 12.675 -5.686 12.675 -12.675 c 0 -2.953 -1.038 -5.829 -2.923 -8.097 c -0.356 -0.428 -0.297 -1.065 0.132 -1.422 c 0.428 -0.356 1.065 -0.297 1.422 0.132 c 2.185 2.629 3.388 5.963 3.388 9.387 C 80.928 77.359 74.336 83.951 66.233 83.951 z" style="stroke: none; stroke-width: 1; stroke-dasharray: none; stroke-linecap: butt; stroke-linejoin: miter; stroke-miterlimit: 10; fill: rgb(0,0,0); fill-rule: nonzero; opacity: 1;" transform=" matrix(1 0 0 1 0 0) " stroke-linecap="round" />
	<path d="M 66.233 90 C 54.796 90 45.49 80.694 45.49 69.257 s 9.306 -20.743 20.743 -20.743 s 20.742 9.306 20.742 20.743 S 77.671 90 66.233 90 z M 66.233 50.533 c -10.324 0 -18.723 8.399 -18.723 18.723 S 55.909 87.98 66.233 87.98 s 18.722 -8.399 18.722 -18.723 S 76.557 50.533 66.233 50.533 z" style="stroke: none; stroke-width: 1; stroke-dasharray: none; stroke-linecap: butt; stroke-linejoin: miter; stroke-miterlimit: 10; fill: rgb(0,0,0); fill-rule: nonzero; opacity: 1;" transform=" matrix(1 0 0 1 0 0) " stroke-linecap="round" />
	<path d="M 66.908 76.311 c -3.889 0 -7.054 -3.164 -7.054 -7.055 c 0 -3.89 3.164 -7.055 7.054 -7.055 c 1.755 0 3.437 0.648 4.737 1.826 c 0.413 0.375 0.445 1.014 0.07 1.427 c -0.375 0.414 -1.015 0.442 -1.427 0.07 c -0.926 -0.84 -2.127 -1.303 -3.379 -1.303 c -2.776 0 -5.034 2.259 -5.034 5.035 c 0 2.776 2.258 5.035 5.034 5.035 c 1.253 0 2.453 -0.463 3.379 -1.303 c 0.412 -0.373 1.053 -0.344 1.427 0.07 c 0.375 0.413 0.343 1.053 -0.07 1.427 C 70.345 75.663 68.663 76.311 66.908 76.311 z" style="stroke: none; stroke-width: 1; stroke-dasharray: none; stroke-linecap: butt; stroke-linejoin: miter; stroke-miterlimit: 10; fill: rgb(0,0,0); fill-rule: nonzero; opacity: 1;" transform=" matrix(1 0 0 1 0 0) " stroke-linecap="round" />
	<path d="M 66.908 64.222 c -0.558 0 -1.01 -0.452 -1.01 -1.01 v -2.318 c 0 -0.558 0.452 -1.01 1.01 -1.01 c 0.558 0 1.01 0.452 1.01 1.01 v 2.318 C 67.918 63.77 67.466 64.222 66.908 64.222 z" style="stroke: none; stroke-width: 1; stroke-dasharray: none; stroke-linecap: butt; stroke-linejoin: miter; stroke-miterlimit: 10; fill: rgb(0,0,0); fill-rule: nonzero; opacity: 1;" transform=" matrix(1 0 0 1 0 0) " stroke-linecap="round" />
	<path d="M 66.908 78.63 c -0.558 0 -1.01 -0.452 -1.01 -1.01 v -2.318 c 0 -0.558 0.452 -1.01 1.01 -1.01 c 0.558 0 1.01 0.452 1.01 1.01 v 2.318 C 67.918 78.178 67.466 78.63 66.908 78.63 z" style="stroke: none; stroke-width: 1; stroke-dasharray: none; stroke-linecap: butt; stroke-linejoin: miter; stroke-miterlimit: 10; fill: rgb(0,0,0); fill-rule: nonzero; opacity: 1;" transform=" matrix(1 0 0 1 0 0) " stroke-linecap="round" />
	<path d="M 16.828 77.431 c -0.02 0 -0.039 -0.001 -0.059 -0.002 c -0.557 -0.032 -0.982 -0.509 -0.95 -1.066 c 0.03 -0.52 0.027 -1.044 0.024 -1.567 c -0.006 -1.21 -0.013 -2.461 0.35 -3.708 c 0.505 -1.735 1.612 -3.096 2.684 -4.413 c 0.246 -0.302 0.491 -0.604 0.727 -0.908 c 1.737 -2.24 3.073 -4.862 3.866 -7.583 c 0.156 -0.537 0.716 -0.844 1.252 -0.688 c 0.536 0.156 0.843 0.716 0.687 1.252 c -0.875 3.005 -2.291 5.782 -4.208 8.255 c -0.246 0.318 -0.502 0.631 -0.758 0.946 c -0.987 1.214 -1.921 2.361 -2.311 3.703 c -0.281 0.965 -0.275 2.018 -0.269 3.134 c 0.003 0.565 0.005 1.132 -0.027 1.694 C 17.804 77.017 17.359 77.431 16.828 77.431 z" style="stroke: none; stroke-width: 1; stroke-dasharray: none; stroke-linecap: butt; stroke-linejoin: miter; stroke-miterlimit: 10; fill: rgb(0,0,0); fill-rule: nonzero; opacity: 1;" transform=" matrix(1 0 0 1 0 0) " stroke-linecap="round" />
	<path d="M 40.348 57.174 c -0.124 0 -0.25 -0.023 -0.372 -0.071 c -1.605 -0.638 -2.621 -2.252 -3.603 -3.814 c -0.802 -1.274 -1.632 -2.593 -2.609 -2.992 c -0.516 -0.21 -0.764 -0.8 -0.553 -1.317 c 0.21 -0.516 0.796 -0.766 1.317 -0.553 c 1.578 0.643 2.583 2.241 3.556 3.787 c 0.809 1.286 1.646 2.617 2.639 3.011 c 0.518 0.206 0.772 0.794 0.566 1.312 C 41.13 56.933 40.75 57.174 40.348 57.174 z" style="stroke: none; stroke-width: 1; stroke-dasharray: none; stroke-linecap: butt; stroke-linejoin: miter; stroke-miterlimit: 10; fill: rgb(0,0,0); fill-rule: nonzero; opacity: 1;" transform=" matrix(1 0 0 1 0 0) " stroke-linecap="round" />
</g>
</g>
</svg>